# xmcd
# 
# Track frame offsets:
#     150
#     15355
#     31045
#     44905
#     62270
#     79125
#     98327
#     117922
#     129707
#     135115
#     149185
#     158947
#     172500
#     184110
#     200447
# 
# Disc length: 2891
# 
# Revision: 7
# Processed by: cddbd v1.5.2PL0 Copyright (c) Steve Scherf et al.
# Submitted via: BonkEnc v1.0
# 
DISCID=bb0b490f
DTITLE=Blitz - Meus Momentos
DYEAR=1994
DGENRE=Rock
TTITLE0=Você Não Soube Me Amar
TTITLE1=A Dois Passos Do Paraíso
TTITLE2=Betty Frígida
TTITLE3=Mais Uma De Amor (Geme, Geme)
TTITLE4=Weekend
TTITLE5=Egotrip
TTITLE6=Dali De Salvador - O Mar
TTITLE7=Volta Ao Mundo
TTITLE8=Blitz Cabeluda
TTITLE9=Vai, Vai Love
TTITLE10=O Romance Da Universitária Otária
TTITLE11=Eu Só Ando A Mil
TTITLE12=Biquini de Bolinha Amarelinha Tão Pequenininho
TTITLE13=De Manhã (Aventuras Submarinas)
TTITLE14=Cruel, Cruel Esquizofrenético Blues
EXTD=YEAR: 1994
EXTT0=
EXTT1=
EXTT2=
EXTT3=
EXTT4=
EXTT5=
EXTT6=
EXTT7=
EXTT8=
EXTT9=
EXTT10=
EXTT11=
EXTT12=
EXTT13=
EXTT14=
PLAYORDER=
